<svg width="2350" height="923" xmlns="http://www.w3.org/2000/svg" xmlns:xlink="http://www.w3.org/1999/xlink" overflow="hidden"><defs><clipPath id="clip0"><rect x="674" y="428" width="2350" height="923"/></clipPath></defs><g clip-path="url(#clip0)" transform="translate(-674 -428)"><rect x="676.5" y="553.5" width="52.9999" height="795" stroke="#2F528F" stroke-width="4.58333" stroke-miterlimit="8" fill="#4472C4"/><rect x="757.5" y="553.5" width="53.9999" height="795" stroke="#2F528F" stroke-width="4.58333" stroke-miterlimit="8" fill="#A9D18E"/><rect x="839.5" y="553.5" width="53.9999" height="795" stroke="#2F528F" stroke-width="4.58333" stroke-miterlimit="8" fill="#F4B183"/><rect x="1125.5" y="553.5" width="54" height="795" stroke="#2F528F" stroke-width="4.58333" stroke-miterlimit="8" fill="#4472C4"/><rect x="1207.5" y="553.5" width="52.9999" height="795" stroke="#2F528F" stroke-width="4.58333" stroke-miterlimit="8" fill="#A9D18E"/><rect x="1289.5" y="553.5" width="52.9999" height="795" stroke="#2F528F" stroke-width="4.58333" stroke-miterlimit="8" fill="#F4B183"/><rect x="1562.5" y="553.5" width="53.0002" height="795" stroke="#2F528F" stroke-width="4.58333" stroke-miterlimit="8" fill="#4472C4"/><rect x="1644.5" y="553.5" width="52.9999" height="795" stroke="#2F528F" stroke-width="4.58333" stroke-miterlimit="8" fill="#A9D18E"/><rect x="1725.5" y="553.5" width="54" height="795" stroke="#2F528F" stroke-width="4.58333" stroke-miterlimit="8" fill="#F4B183"/><rect x="2242.5" y="553.5" width="53" height="795" stroke="#2F528F" stroke-width="4.58333" stroke-miterlimit="8" fill="#7030A0"/><rect x="2318.5" y="553.5" width="53" height="795" stroke="#2F528F" stroke-width="4.58333" stroke-miterlimit="8" fill="#A9D18E"/><rect x="2603.5" y="553.5" width="53" height="795" stroke="#2F528F" stroke-width="4.58333" stroke-miterlimit="8" fill="#7030A0"/><rect x="2679.5" y="553.5" width="53" height="795" stroke="#2F528F" stroke-width="4.58333" stroke-miterlimit="8" fill="#A9D18E"/><rect x="2967.5" y="553.5" width="54" height="795" stroke="#2F528F" stroke-width="4.58333" stroke-miterlimit="8" fill="#7030A0"/><path d="M904 942.25 1094.5 942.25 1094.5 933 1113 951.5 1094.5 970 1094.5 960.75 904 960.75Z" fill-rule="evenodd"/><path d="M1348 941.25 1537.5 941.25 1537.5 932 1556 950.5 1537.5 969 1537.5 959.75 1348 959.75Z" fill-rule="evenodd"/><path d="M1801 944.25 2214.5 944.25 2214.5 936 2231 952.5 2214.5 969 2214.5 960.75 1801 960.75Z" fill-rule="evenodd"/><path d="M2383 942.25 2572.5 942.25 2572.5 933 2591 951.5 2572.5 970 2572.5 960.75 2383 960.75Z" fill-rule="evenodd"/><path d="M2753 945.25 2943.5 945.25 2943.5 936 2962 954.5 2943.5 973 2943.5 963.75 2753 963.75Z" fill-rule="evenodd"/><rect x="1445.5" y="449.5" width="101" height="45.9997" stroke="#2F528F" stroke-width="4.58333" stroke-miterlimit="8" fill="#A9D18E"/><text font-family="Linux Biolinum,Linux Biolinum_MSFontService,sans-serif" font-weight="400" font-size="46" transform="matrix(1 0 0 1 1578.89 487)">activation</text><rect x="1141.5" y="449.5" width="101" height="45.9997" stroke="#2F528F" stroke-width="4.58333" stroke-miterlimit="8" fill="#2E75B6"/><text font-family="Linux Biolinum,Linux Biolinum_MSFontService,sans-serif" font-weight="400" font-size="46" transform="matrix(1 0 0 1 1274.5 487)">conv</text><rect x="1791.5" y="449.5" width="100" height="45.9997" stroke="#2F528F" stroke-width="4.58333" stroke-miterlimit="8" fill="#F4B183"/><text font-family="Linux Biolinum,Linux Biolinum_MSFontService,sans-serif" font-weight="400" font-size="46" transform="matrix(1 0 0 1 1924.42 487)">poolin<tspan font-size="46" x="116.875" y="0">g</tspan></text><rect x="2136.5" y="449.5" width="100" height="45.9997" stroke="#2F528F" stroke-width="4.58333" stroke-miterlimit="8" fill="#7030A0"/><text font-family="Linux Biolinum,Linux Biolinum_MSFontService,sans-serif" font-weight="400" font-size="46" transform="matrix(1 0 0 1 2269.22 487)">fully connected</text></g></svg>